<svg width="24" height="24" viewBox="0 0 24 24" fill="none" xmlns="http://www.w3.org/2000/svg">
<path d="M8.78711 2.79199C9.17815 2.65558 9.60568 2.86195 9.74219 3.25293C9.87862 3.64403 9.67235 4.07157 9.28125 4.20801C8.95569 4.32159 8.6396 4.45555 8.33398 4.60742C5.61568 5.9583 3.75 8.76186 3.75 12C3.75 16.5563 7.44365 20.25 12 20.25C15.5909 20.25 18.6473 17.9552 19.7803 14.75C19.9183 14.3595 20.3477 14.1549 20.7383 14.293C21.1285 14.4312 21.3333 14.8596 21.1953 15.25C19.8572 19.0359 16.2464 21.75 12 21.75C6.61522 21.75 2.25 17.3848 2.25 12C2.25 8.17074 4.45749 4.85821 7.66602 3.26367C8.02743 3.08406 8.40185 2.92641 8.78711 2.79199ZM12 2.25C17.3848 2.25 21.75 6.61522 21.75 12C21.75 12.4142 21.4142 12.75 21 12.75H12C11.5858 12.75 11.25 12.4142 11.25 12V3C11.25 2.58579 11.5858 2.25 12 2.25ZM12.75 11.25H20.2139C19.8571 7.2923 16.7077 4.14187 12.75 3.78516V11.25Z" fill="currentColor"/>
</svg>
