<svg width="24" height="24" viewBox="0 0 24 24" fill="none" xmlns="http://www.w3.org/2000/svg">
<path d="M16 1.25C16.4142 1.25 16.75 1.58579 16.75 2V4.25H19C19.4142 4.25 19.75 4.58579 19.75 5V6.75H22C22.4142 6.75 22.75 7.08579 22.75 7.5C22.75 7.91421 22.4142 8.25 22 8.25H19.75V10.75H22C22.4142 10.75 22.75 11.0858 22.75 11.5C22.75 11.9142 22.4142 12.25 22 12.25H19.75V14.75H22C22.4142 14.75 22.75 15.0858 22.75 15.5C22.75 15.9142 22.4142 16.25 22 16.25H19.75V19C19.75 19.4142 19.4142 19.75 19 19.75H16.75V22C16.75 22.4142 16.4142 22.75 16 22.75C15.5858 22.75 15.25 22.4142 15.25 22V19.75H12.75V22C12.75 22.4142 12.4142 22.75 12 22.75C11.5858 22.75 11.25 22.4142 11.25 22V19.75H8.75V22C8.75 22.4142 8.41421 22.75 8 22.75C7.58579 22.75 7.25 22.4142 7.25 22V19.75H5C4.58579 19.75 4.25 19.4142 4.25 19V16.25H2C1.58579 16.25 1.25 15.9142 1.25 15.5C1.25 15.0858 1.58579 14.75 2 14.75H4.25V12.25H2C1.58579 12.25 1.25 11.9142 1.25 11.5C1.25 11.0858 1.58579 10.75 2 10.75H4.25V8.25H2C1.58579 8.25 1.25 7.91421 1.25 7.5C1.25 7.08579 1.58579 6.75 2 6.75H4.25V5C4.25 4.58579 4.58579 4.25 5 4.25H7.25V2C7.25 1.58579 7.58579 1.25 8 1.25C8.41421 1.25 8.75 1.58579 8.75 2V4.25H11.25V2C11.25 1.58579 11.5858 1.25 12 1.25C12.4142 1.25 12.75 1.58579 12.75 2V4.25H15.25V2C15.25 1.58579 15.5858 1.25 16 1.25ZM5.75 18.25H18.25V5.75H5.75V18.25Z" fill="#333333"/>
<path d="M15.2935 9V15" stroke="black" stroke-width="1.5" stroke-linecap="round" stroke-linejoin="round"/>
<path d="M12.9473 15L10.9473 9H9.94727L7.94727 15" stroke="black" stroke-width="1.5" stroke-linecap="round" stroke-linejoin="round"/>
<path d="M8.94727 12H11.9473" stroke="black" stroke-width="1.5" stroke-linecap="round" stroke-linejoin="round"/>
</svg>
