<svg width="24" height="24" viewBox="0 0 24 24" fill="none" xmlns="http://www.w3.org/2000/svg">
<path d="M16.25 9C16.25 7.7415 17.0961 6.68316 18.25 6.35645L18.25 3C18.25 2.58579 18.5858 2.25 19 2.25C19.4142 2.25 19.75 2.58579 19.75 3V6.35645C20.9039 6.68316 21.75 7.7415 21.75 9C21.75 10.5188 20.5188 11.75 19 11.75C17.4812 11.75 16.25 10.5188 16.25 9ZM17.75 9C17.75 9.69036 18.3096 10.25 19 10.25C19.6904 10.25 20.25 9.69036 20.25 9C20.25 8.30964 19.6904 7.75 19 7.75C18.3096 7.75 17.75 8.30964 17.75 9ZM18.25 14C18.25 13.5858 18.5858 13.25 19 13.25C19.4142 13.25 19.75 13.5858 19.75 14V21C19.75 21.4142 19.4142 21.75 19 21.75C18.5858 21.75 18.25 21.4142 18.25 21V14ZM9.25 15C9.25 13.4812 10.4812 12.25 12 12.25C13.5188 12.25 14.75 13.4812 14.75 15C14.75 16.2585 13.9039 17.3168 12.75 17.6436V21C12.75 21.4142 12.4142 21.75 12 21.75C11.5858 21.75 11.25 21.4142 11.25 21V17.6436C10.0961 17.3168 9.25 16.2585 9.25 15ZM10.75 15C10.75 15.6904 11.3096 16.25 12 16.25C12.6904 16.25 13.25 15.6904 13.25 15C13.25 14.3096 12.6904 13.75 12 13.75C11.3096 13.75 10.75 14.3096 10.75 15ZM11.25 3C11.25 2.58579 11.5858 2.25 12 2.25C12.4142 2.25 12.75 2.58579 12.75 3L12.75 10C12.75 10.4142 12.4142 10.75 12 10.75C11.5858 10.75 11.25 10.4142 11.25 10L11.25 3ZM2.25 9C2.25 7.7415 3.09614 6.68316 4.25 6.35645L4.25 3C4.25 2.58579 4.58579 2.25 5 2.25C5.41421 2.25 5.75 2.58579 5.75 3V6.35645C6.90386 6.68316 7.75 7.7415 7.75 9C7.75 10.5188 6.51878 11.75 5 11.75C3.48122 11.75 2.25 10.5188 2.25 9ZM3.75 9C3.75 9.69036 4.30964 10.25 5 10.25C5.69036 10.25 6.25 9.69036 6.25 9C6.25 8.30964 5.69036 7.75 5 7.75C4.30964 7.75 3.75 8.30964 3.75 9ZM4.25 14C4.25 13.5858 4.58579 13.25 5 13.25C5.41421 13.25 5.75 13.5858 5.75 14L5.75 21C5.75 21.4142 5.41421 21.75 5 21.75C4.58579 21.75 4.25 21.4142 4.25 21L4.25 14Z" fill="currentColor"/>
</svg>
