<svg width="24" height="24" viewBox="0 0 24 24" fill="none" xmlns="http://www.w3.org/2000/svg">
<path d="M12 2.25C17.3848 2.25 21.75 6.61522 21.75 12C21.75 17.3848 17.3848 21.75 12 21.75C6.61522 21.75 2.25 17.3848 2.25 12C2.25 6.61522 6.61522 2.25 12 2.25ZM12 3.75C7.44365 3.75 3.75 7.44365 3.75 12C3.75 16.5563 7.44365 20.25 12 20.25C16.5563 20.25 20.25 16.5563 20.25 12C20.25 7.44365 16.5563 3.75 12 3.75ZM12 15C12.5523 15 13 15.4477 13 16C13 16.5523 12.5523 17 12 17C11.4477 17 11 16.5523 11 16C11 15.4477 11.4477 15 12 15ZM14 7.25C14.4142 7.25 14.75 7.58579 14.75 8V11C14.75 11.1989 14.6709 11.3896 14.5303 11.5303L12.5303 13.5303C12.2374 13.8232 11.7626 13.8232 11.4697 13.5303C11.1768 13.2374 11.1768 12.7626 11.4697 12.4697L13.25 10.6895V8.75H10.75V10.5C10.75 10.9142 10.4142 11.25 10 11.25C9.58579 11.25 9.25 10.9142 9.25 10.5V8C9.25 7.58579 9.58579 7.25 10 7.25H14Z" fill="currentColor"/>
</svg>
