<svg width="24" height="24" viewBox="0 0 24 24" fill="none" xmlns="http://www.w3.org/2000/svg">
<path d="M12 1.25C17.9371 1.25 22.75 6.06294 22.75 12C22.75 17.9371 17.9371 22.75 12 22.75C6.06294 22.75 1.25 17.9371 1.25 12C1.25 6.06294 6.06294 1.25 12 1.25ZM12 2.75C6.89137 2.75 2.75 6.89137 2.75 12C2.75 17.1086 6.89137 21.25 12 21.25C17.1086 21.25 21.25 17.1086 21.25 12C21.25 6.89137 17.1086 2.75 12 2.75ZM13.333 12.25C15.22 12.25 16.75 13.78 16.75 15.667C16.7498 16.8173 15.8173 17.7498 14.667 17.75H9.33301C8.18267 17.7498 7.25018 16.8173 7.25 15.667C7.25 13.78 8.78002 12.25 10.667 12.25H13.333ZM10.667 13.75C9.60845 13.75 8.75 14.6084 8.75 15.667C8.75018 15.9889 9.0111 16.2498 9.33301 16.25H14.667C14.9889 16.2498 15.2498 15.9889 15.25 15.667C15.25 14.6084 14.3916 13.75 13.333 13.75H10.667ZM12 5.25C13.5188 5.25 14.75 6.48122 14.75 8C14.75 9.51878 13.5188 10.75 12 10.75C10.4812 10.75 9.25 9.51878 9.25 8C9.25 6.48122 10.4812 5.25 12 5.25ZM12 6.75C11.3096 6.75 10.75 7.30964 10.75 8C10.75 8.69036 11.3096 9.25 12 9.25C12.6904 9.25 13.25 8.69036 13.25 8C13.25 7.30964 12.6904 6.75 12 6.75Z" fill="currentColor"/>
</svg>
