<svg width="24" height="24" viewBox="0 0 24 24" fill="none" xmlns="http://www.w3.org/2000/svg">
<path d="M16 2.25C16.4142 2.25 16.75 2.58579 16.75 3V21C16.75 21.4142 16.4142 21.75 16 21.75H2C1.58579 21.75 1.25 21.4142 1.25 21V3C1.25 2.58579 1.58579 2.25 2 2.25H16ZM2.75 20.25H15.25V3.75H2.75V20.25ZM19 5.25C19.4142 5.25 19.75 5.58579 19.75 6V18C19.75 18.4142 19.4142 18.75 19 18.75C18.5858 18.75 18.25 18.4142 18.25 18V6C18.25 5.58579 18.5858 5.25 19 5.25ZM22 7.25C22.4142 7.25 22.75 7.58579 22.75 8V16C22.75 16.4142 22.4142 16.75 22 16.75C21.5858 16.75 21.25 16.4142 21.25 16V8C21.25 7.58579 21.5858 7.25 22 7.25ZM8 14.25C8.41421 14.25 8.75 14.5858 8.75 15C8.75 15.4142 8.41421 15.75 8 15.75H6C5.58579 15.75 5.25 15.4142 5.25 15C5.25 14.5858 5.58579 14.25 6 14.25H8ZM10 10.25C10.4142 10.25 10.75 10.5858 10.75 11C10.75 11.4142 10.4142 11.75 10 11.75H6C5.58579 11.75 5.25 11.4142 5.25 11C5.25 10.5858 5.58579 10.25 6 10.25H10ZM12 6.25C12.4142 6.25 12.75 6.58579 12.75 7C12.75 7.41421 12.4142 7.75 12 7.75H6C5.58579 7.75 5.25 7.41421 5.25 7C5.25 6.58579 5.58579 6.25 6 6.25H12Z" fill="#333333"/>
</svg>
