<svg width="24" height="24" viewBox="0 0 24 24" fill="none" xmlns="http://www.w3.org/2000/svg">
<path d="M14.5571 14.5413C16.855 14.5413 18.7183 16.4045 18.7183 18.7024C18.7179 20.058 17.6188 21.1573 16.2632 21.1575H7.73584C6.38027 21.1572 5.28115 20.0579 5.28076 18.7024C5.28076 16.4046 7.14413 14.5414 9.44189 14.5413H14.5571ZM5.38428 14.719C5.79819 14.7193 6.13428 15.055 6.13428 15.469C6.13423 15.8829 5.79816 16.2186 5.38428 16.219C4.85254 16.219 4.53853 16.2417 4.28076 16.3196C4.05022 16.3894 3.8175 16.5191 3.50732 16.8303C3.17726 17.1616 2.99082 17.6613 2.94385 18.1741C2.92093 18.4247 2.93414 18.6548 2.96826 18.8352C3.00388 19.0231 3.05113 19.1006 3.0542 19.1057C3.19929 19.2898 3.26532 19.3699 3.42334 19.4456C3.6079 19.5338 3.97914 19.6379 4.75635 19.6379C5.17036 19.6382 5.50635 19.9739 5.50635 20.3879C5.50617 20.8019 5.17025 21.1377 4.75635 21.1379C3.87087 21.1379 3.2461 21.023 2.77588 20.7981C2.2795 20.5605 2.03059 20.2313 1.87549 20.0344C1.66602 19.7685 1.55278 19.4261 1.49365 19.1135C1.43152 18.785 1.41518 18.4148 1.44971 18.0374C1.51785 17.2935 1.7961 16.4228 2.44482 15.7717C2.88824 15.3268 3.3276 15.0401 3.84619 14.8831C4.33733 14.7345 4.85124 14.719 5.38428 14.719ZM18.6157 14.719C19.1489 14.719 19.6626 14.7344 20.1538 14.8831C20.6725 15.0401 21.1117 15.3267 21.5552 15.7717C22.2039 16.4228 22.4822 17.2935 22.5503 18.0374C22.5848 18.4147 22.5685 18.785 22.5063 19.1135C22.4472 19.4261 22.334 19.7684 22.1245 20.0344C21.9694 20.2312 21.7207 20.5604 21.2241 20.7981C20.7539 21.0232 20.1294 21.1379 19.2437 21.1379C18.8295 21.1379 18.4938 20.802 18.4937 20.3879C18.4937 19.9737 18.8294 19.6379 19.2437 19.6379C20.0214 19.6379 20.3922 19.5338 20.5767 19.4456C20.7347 19.3699 20.8006 19.29 20.9458 19.1057C20.9489 19.1006 20.9961 19.0232 21.0317 18.8352C21.0659 18.6548 21.0791 18.4246 21.0562 18.1741C21.0092 17.6613 20.8227 17.1616 20.4927 16.8303C20.1824 16.519 19.9498 16.3894 19.7192 16.3196C19.4614 16.2416 19.1477 16.219 18.6157 16.219C18.2016 16.2189 17.8658 15.8831 17.8657 15.469C17.8657 15.0549 18.2016 14.7191 18.6157 14.719ZM9.44189 16.0413C7.97256 16.0414 6.78076 17.233 6.78076 18.7024C6.78115 19.2295 7.2087 19.6572 7.73584 19.6575H16.2632C16.7904 19.6573 17.2179 19.2296 17.2183 18.7024C17.2183 17.2329 16.0266 16.0413 14.5571 16.0413H9.44189ZM12.0005 4.30884C14.2981 4.30912 16.1606 6.17229 16.1606 8.46997C16.1604 10.7675 14.298 12.6298 12.0005 12.6301C9.70276 12.6301 7.8396 10.7676 7.83936 8.46997C7.83939 6.17212 9.70263 4.30884 12.0005 4.30884ZM8.00049 4.53442C8.41438 4.5348 8.75049 4.87044 8.75049 5.28442C8.75034 5.69828 8.41429 6.03405 8.00049 6.03442C6.31304 6.03443 5.15123 7.1129 5.1499 8.4856C5.14884 9.85459 6.12777 10.9346 7.19971 10.9348C7.61378 10.935 7.94971 11.2707 7.94971 11.6848C7.94953 12.0988 7.61367 12.4347 7.19971 12.4348C5.07204 12.4346 3.64814 10.4353 3.6499 8.48364C3.65234 6.09424 5.6878 4.53443 8.00049 4.53442ZM15.9995 4.53442C18.3122 4.53443 20.3477 6.09424 20.3501 8.48364C20.3519 10.4353 18.928 12.4346 16.8003 12.4348C16.3863 12.4347 16.0505 12.0988 16.0503 11.6848C16.0503 11.2707 16.3862 10.935 16.8003 10.9348C17.8722 10.9346 18.8512 9.85459 18.8501 8.4856C18.8488 7.1129 17.687 6.03443 15.9995 6.03442C15.5857 6.03406 15.2497 5.69829 15.2495 5.28442C15.2495 4.87044 15.5856 4.53479 15.9995 4.53442ZM12.0005 5.80884C10.5311 5.80884 9.33939 7.00055 9.33936 8.46997C9.3396 9.93922 10.5312 11.1301 12.0005 11.1301C13.4696 11.1298 14.6604 9.93904 14.6606 8.46997C14.6606 7.00072 13.4697 5.80912 12.0005 5.80884Z" fill="currentColor"/>
</svg>
