<svg width="117" height="36" viewBox="0 0 117 36" fill="none" xmlns="http://www.w3.org/2000/svg">
<path d="M16.56 0.648V5.652H5.508V11.736H14.688V16.416H5.508V27.108H0V0.648H16.56Z" fill="#333333"/>
<path d="M25.0448 8.856V27.108H19.7528V8.856H25.0448ZM20.1847 0.899999C20.7847 0.3 21.5287 0 22.4167 0C23.3047 0 24.0367 0.3 24.6127 0.899999C25.2127 1.476 25.5128 2.208 25.5128 3.096C25.5128 3.984 25.2127 4.728 24.6127 5.328C24.0367 5.904 23.3047 6.192 22.4167 6.192C21.5287 6.192 20.7847 5.904 20.1847 5.328C19.6087 4.728 19.3207 3.984 19.3207 3.096C19.3207 2.208 19.6087 1.476 20.1847 0.899999Z" fill="#333333"/>
<path d="M36.6089 8.496C39.0569 8.496 40.8449 9.3 41.9729 10.908L42.2249 8.856H46.9769V26.352C46.9769 29.256 46.0769 31.548 44.2769 33.228C42.4769 34.908 40.0769 35.748 37.0769 35.748C33.4289 35.748 30.4409 34.44 28.1129 31.824L31.5689 28.368C33.2009 30.216 35.0129 31.14 37.0049 31.14C38.4449 31.14 39.5729 30.708 40.3889 29.844C41.2289 28.98 41.6609 27.852 41.6849 26.46V25.056C40.5329 26.4 38.8409 27.072 36.6089 27.072C34.2089 27.072 32.2529 26.196 30.7409 24.444C29.2289 22.692 28.4729 20.472 28.4729 17.784C28.4729 15.096 29.2289 12.876 30.7409 11.124C32.2529 9.372 34.2089 8.496 36.6089 8.496ZM37.9049 13.104C36.6809 13.104 35.6969 13.536 34.9529 14.4C34.2089 15.24 33.8369 16.368 33.8369 17.784C33.8369 19.2 34.2089 20.34 34.9529 21.204C35.6969 22.044 36.6809 22.464 37.9049 22.464C39.4889 22.464 40.7489 21.696 41.6849 20.16V15.408C40.7489 13.872 39.4889 13.104 37.9049 13.104Z" fill="#333333"/>
<path d="M62.0384 8.496C64.5584 8.496 66.3824 9.54 67.5104 11.628C69.0224 9.54 71.0264 8.496 73.5224 8.496C75.6104 8.496 77.2184 9.228 78.3464 10.692C79.4984 12.132 80.0744 14.1 80.0744 16.596V27.108H74.7464V16.884C74.7464 15.852 74.5064 15.024 74.0264 14.4C73.5464 13.776 72.8624 13.464 71.9744 13.464C70.6544 13.464 69.5264 14.184 68.5904 15.624V27.108H63.2984V16.884C63.2984 15.852 63.0584 15.024 62.5784 14.4C62.0984 13.776 61.4144 13.464 60.5264 13.464C59.2544 13.464 58.1264 14.184 57.1424 15.624V27.108H51.8504V8.856H56.6024L56.8544 10.872C58.0064 9.288 59.7344 8.496 62.0384 8.496Z" fill="#333333"/>
<path d="M95.2026 0.18L107.983 27.108H101.935L100.207 23.004H90.0546L88.3266 27.108H82.2786L95.0586 0.18H95.2026ZM95.1306 10.8L91.7826 18.72H98.4786L95.1306 10.8Z" fill="#D30077"/>
<path d="M116.285 0.648V27.108H110.777V0.648H116.285Z" fill="#D30077"/>
</svg>
