<svg width="127" height="16" viewBox="0 0 127 16" fill="none" xmlns="http://www.w3.org/2000/svg">
<path d="M3.744 0.400001C5.76 0.400001 7.33333 0.917334 8.464 1.952C9.60533 2.98667 10.176 4.42667 10.176 6.272C10.176 8.128 9.61067 9.57333 8.48 10.608C7.34933 11.6427 5.77067 12.16 3.744 12.16H0V0.400001H3.744ZM3.664 2.64H2.448V9.936H3.664C4.976 9.936 5.97333 9.62133 6.656 8.992C7.34933 8.352 7.696 7.45067 7.696 6.288C7.696 5.11467 7.34933 4.21333 6.656 3.584C5.97333 2.95467 4.976 2.64 3.664 2.64Z" fill="white"/>
<path d="M15.1565 3.888C16.3725 3.888 17.3058 4.27733 17.9565 5.056C18.6072 5.83467 18.9325 6.816 18.9325 8V8.752H13.4445C13.4978 9.84 14.1165 10.384 15.3005 10.384C16.0792 10.384 16.6712 10.1067 17.0765 9.552L18.6925 10.864C17.8498 11.8347 16.7032 12.32 15.2525 12.32C13.9938 12.32 12.9805 11.9307 12.2125 11.152C11.4552 10.3627 11.0765 9.35467 11.0765 8.128C11.0765 6.90133 11.4552 5.888 12.2125 5.088C12.9805 4.288 13.9618 3.888 15.1565 3.888ZM16.1805 6.112C15.9138 5.81333 15.5458 5.664 15.0765 5.664C14.6072 5.664 14.2232 5.81333 13.9245 6.112C13.6258 6.41067 13.4658 6.79467 13.4445 7.264H16.6125C16.5912 6.79467 16.4472 6.41067 16.1805 6.112Z" fill="white"/>
<path d="M23.5378 3.888C24.7431 3.888 25.6817 4.18133 26.3538 4.768L25.4738 6.432C24.8978 5.97333 24.2524 5.744 23.5378 5.744C22.8338 5.744 22.4818 5.95733 22.4818 6.384C22.4818 6.58667 22.5778 6.74667 22.7698 6.864C22.9618 6.97067 23.3511 7.09333 23.9377 7.232C25.6337 7.648 26.4818 8.448 26.4818 9.632C26.4818 10.4427 26.1617 11.0933 25.5217 11.584C24.8924 12.0747 24.0337 12.32 22.9457 12.32C21.6337 12.32 20.5991 11.9947 19.8417 11.344L20.7377 9.664C21.3777 10.208 22.1191 10.48 22.9618 10.48C23.7297 10.48 24.1138 10.2507 24.1138 9.792C24.1138 9.568 24.0178 9.392 23.8258 9.264C23.6338 9.136 23.2711 9.008 22.7378 8.88C21.8311 8.656 21.1697 8.368 20.7537 8.016C20.3377 7.65333 20.1297 7.16267 20.1297 6.544C20.1297 5.73333 20.4284 5.088 21.0257 4.608C21.6337 4.128 22.4711 3.888 23.5378 3.888Z" fill="white"/>
<path d="M30.381 4.048V12.16H28.029V4.048H30.381ZM28.221 0.512C28.4877 0.245334 28.8183 0.112 29.213 0.112C29.6077 0.112 29.933 0.245334 30.189 0.512C30.4557 0.768 30.589 1.09333 30.589 1.488C30.589 1.88267 30.4557 2.21333 30.189 2.48C29.933 2.736 29.6077 2.864 29.213 2.864C28.8183 2.864 28.4877 2.736 28.221 2.48C27.965 2.21333 27.837 1.88267 27.837 1.488C27.837 1.09333 27.965 0.768 28.221 0.512Z" fill="white"/>
<path d="M35.5206 3.888C36.6086 3.888 37.4033 4.24533 37.9046 4.96L38.0166 4.048H40.1286V11.824C40.1286 13.1147 39.7286 14.1333 38.9286 14.88C38.1286 15.6267 37.062 16 35.7286 16C34.1073 16 32.7793 15.4187 31.7446 14.256L33.2806 12.72C34.006 13.5413 34.8113 13.952 35.6966 13.952C36.3366 13.952 36.838 13.76 37.2006 13.376C37.574 12.992 37.766 12.4907 37.7766 11.872V11.248C37.2646 11.8453 36.5126 12.144 35.5206 12.144C34.454 12.144 33.5846 11.7547 32.9126 10.976C32.2406 10.1973 31.9046 9.21067 31.9046 8.016C31.9046 6.82133 32.2406 5.83467 32.9126 5.056C33.5846 4.27733 34.454 3.888 35.5206 3.888ZM36.0966 5.936C35.5526 5.936 35.1153 6.128 34.7846 6.512C34.454 6.88533 34.2886 7.38667 34.2886 8.016C34.2886 8.64533 34.454 9.152 34.7846 9.536C35.1153 9.90933 35.5526 10.096 36.0966 10.096C36.8006 10.096 37.3606 9.75467 37.7766 9.072V6.96C37.3606 6.27733 36.8006 5.936 36.0966 5.936Z" fill="white"/>
<path d="M46.8226 3.888C47.7933 3.888 48.54 4.21333 49.0626 4.864C49.596 5.504 49.8626 6.37867 49.8626 7.488V12.16H47.5106V7.616C47.5106 7.15733 47.388 6.78933 47.1426 6.512C46.908 6.23467 46.588 6.096 46.1826 6.096C45.5533 6.096 45.0413 6.416 44.6466 7.056V12.16H42.2946V4.048H44.4066L44.5186 4.944C44.9986 4.24 45.7666 3.888 46.8226 3.888Z" fill="white"/>
<path d="M60.2029 0.192L65.8829 12.16H63.1949L62.4269 10.336H57.9149L57.1469 12.16H54.4589L60.1389 0.192H60.2029ZM60.1709 4.912L58.6829 8.432H61.6589L60.1709 4.912Z" fill="#D30077"/>
<path d="M69.573 0.400001V12.16H67.125V0.400001H69.573Z" fill="#D30077"/>
<path d="M84.6992 0.400001V2.544H80.8753V12.16H78.4433V2.544H74.6352V0.400001H84.6992Z" fill="white"/>
<path d="M84.464 5.104C85.2747 4.29333 86.2933 3.888 87.52 3.888C88.7467 3.888 89.7653 4.29333 90.576 5.104C91.3973 5.904 91.808 6.912 91.808 8.128C91.808 9.344 91.4027 10.3467 90.592 11.136C89.7813 11.9253 88.7573 12.32 87.52 12.32C86.2827 12.32 85.264 11.9253 84.464 11.136C83.664 10.3467 83.264 9.344 83.264 8.128C83.264 6.912 83.664 5.904 84.464 5.104ZM87.52 5.936C86.976 5.936 86.5227 6.144 86.16 6.56C85.808 6.976 85.632 7.49867 85.632 8.128C85.632 8.74667 85.808 9.25867 86.16 9.664C86.5227 10.0693 86.976 10.272 87.52 10.272C88.0747 10.272 88.528 10.0693 88.88 9.664C89.2427 9.25867 89.424 8.74667 89.424 8.128C89.424 7.49867 89.2427 6.976 88.88 6.56C88.528 6.144 88.0747 5.936 87.52 5.936Z" fill="white"/>
<path d="M94.0734 5.104C94.884 4.29333 95.9027 3.888 97.1294 3.888C98.356 3.888 99.3747 4.29333 100.185 5.104C101.007 5.904 101.417 6.912 101.417 8.128C101.417 9.344 101.012 10.3467 100.201 11.136C99.3907 11.9253 98.3667 12.32 97.1294 12.32C95.892 12.32 94.8734 11.9253 94.0734 11.136C93.2734 10.3467 92.8734 9.344 92.8734 8.128C92.8734 6.912 93.2734 5.904 94.0734 5.104ZM97.1294 5.936C96.5854 5.936 96.132 6.144 95.7694 6.56C95.4174 6.976 95.2414 7.49867 95.2414 8.128C95.2414 8.74667 95.4174 9.25867 95.7694 9.664C96.132 10.0693 96.5854 10.272 97.1294 10.272C97.684 10.272 98.1374 10.0693 98.4894 9.664C98.852 9.25867 99.0334 8.74667 99.0334 8.128C99.0334 7.49867 98.852 6.976 98.4894 6.56C98.1374 6.144 97.684 5.936 97.1294 5.936Z" fill="white"/>
<path d="M105.272 0V12.16H102.92V0H105.272Z" fill="white"/>
<path d="M109.787 0V8.224L112.507 4.048H115.323L112.843 7.392L115.547 12.16H112.875L111.291 9.424L109.291 12.16H107.435V0H109.787Z" fill="white"/>
<path d="M119.037 4.048V12.16H116.685V4.048H119.037ZM116.877 0.512C117.144 0.245334 117.475 0.112 117.869 0.112C118.264 0.112 118.589 0.245334 118.845 0.512C119.112 0.768 119.245 1.09333 119.245 1.488C119.245 1.88267 119.112 2.21333 118.845 2.48C118.589 2.736 118.264 2.864 117.869 2.864C117.475 2.864 117.144 2.736 116.877 2.48C116.621 2.21333 116.493 1.88267 116.493 1.488C116.493 1.09333 116.621 0.768 116.877 0.512Z" fill="white"/>
<path d="M124.097 1.36V4.048H126.417V6.032H124.097V9.104C124.097 9.456 124.198 9.728 124.401 9.92C124.604 10.112 124.876 10.208 125.217 10.208C125.633 10.208 125.98 10.128 126.257 9.968L126.849 11.824C126.294 12.1547 125.676 12.32 124.993 12.32C123.99 12.32 123.196 12.0427 122.609 11.488C122.033 10.9333 121.745 10.1493 121.745 9.136V6.032H120.289V4.048H121.745V1.36H124.097Z" fill="white"/>
</svg>
