<svg width="24" height="24" viewBox="0 0 24 24" fill="none" xmlns="http://www.w3.org/2000/svg">
<path d="M9 11.25C9.41421 11.25 9.75 11.5858 9.75 12C9.75 12.4142 9.41421 12.75 9 12.75C6.65279 12.75 4.75 14.6528 4.75 17C4.75 19.3472 6.65279 21.25 9 21.25C10.3898 21.25 11.6237 20.5836 12.4004 19.5498C12.6492 19.2186 13.12 19.1516 13.4512 19.4004C13.7821 19.6492 13.8483 20.1191 13.5996 20.4502C12.5518 21.8451 10.8816 22.75 9 22.75C5.82436 22.75 3.25 20.1756 3.25 17C3.25 13.8244 5.82436 11.25 9 11.25ZM12 8.25C12.4142 8.25 12.75 8.58579 12.75 9V11.25H18C18.4142 11.25 18.75 11.5858 18.75 12C18.75 12.4142 18.4142 12.75 18 12.75H12.75V15.25H18C18.4142 15.25 18.75 15.5858 18.75 16V21.25H20C20.4142 21.25 20.75 21.5858 20.75 22C20.75 22.4142 20.4142 22.75 20 22.75H18C17.5858 22.75 17.25 22.4142 17.25 22V16.75H12C11.5858 16.75 11.25 16.4142 11.25 16V9C11.25 8.58579 11.5858 8.25 12 8.25ZM12 1.25C13.5188 1.25 14.75 2.48122 14.75 4C14.75 5.51878 13.5188 6.75 12 6.75C10.4812 6.75 9.25 5.51878 9.25 4C9.25 2.48122 10.4812 1.25 12 1.25ZM12 2.75C11.3096 2.75 10.75 3.30964 10.75 4C10.75 4.69036 11.3096 5.25 12 5.25C12.6904 5.25 13.25 4.69036 13.25 4C13.25 3.30964 12.6904 2.75 12 2.75Z" fill="black"/>
</svg>
