<svg width="24" height="24" viewBox="0 0 24 24" fill="none" xmlns="http://www.w3.org/2000/svg">
<path d="M12 3C16.9706 3 21 7.02944 21 12C21 16.9706 16.9706 21 12 21C9 20.5 11.2832 16.2042 10 15.5C8.50857 14.6815 7.95262 15.5 6 15.5C4 15.5 3 13.5822 3 12C3 7.02944 7.02944 3 12 3ZM12 4.5C7.85786 4.5 4.5 7.85786 4.5 12C4.5 12.5065 4.6679 13.0605 4.95703 13.4521C5.21798 13.8056 5.54525 14 6 14C6.79818 14 7.15161 13.8527 7.9082 13.7168C8.27092 13.6517 8.71058 13.6007 9.21582 13.667C9.72516 13.7339 10.217 13.9076 10.7217 14.1846C11.8481 14.8027 11.9189 16.0575 11.9316 16.5469C11.9402 16.8749 11.9207 17.2165 11.9023 17.5107C11.8827 17.8262 11.8634 18.0967 11.8555 18.3701C11.8388 18.949 11.892 19.2471 11.959 19.3896C11.9624 19.3969 11.953 19.4491 12.1436 19.4961C16.2194 19.4196 19.5 16.0942 19.5 12C19.5 7.85786 16.1421 4.5 12 4.5ZM8 8C8.82843 8 9.5 8.67157 9.5 9.5C9.5 10.3284 8.82843 11 8 11C7.17157 11 6.5 10.3284 6.5 9.5C6.5 8.67157 7.17157 8 8 8ZM16 8C16.8284 8 17.5 8.67157 17.5 9.5C17.5 10.3284 16.8284 11 16 11C15.1716 11 14.5 10.3284 14.5 9.5C14.5 8.67157 15.1716 8 16 8ZM12 6C12.8284 6 13.5 6.67157 13.5 7.5C13.5 8.32843 12.8284 9 12 9C11.1716 9 10.5 8.32843 10.5 7.5C10.5 6.67157 11.1716 6 12 6Z" fill="black"/>
</svg>
