<svg width="24" height="24" viewBox="0 0 24 24" fill="none" xmlns="http://www.w3.org/2000/svg">
<path d="M11.9998 2.13794C12.2673 2.13794 12.5151 2.28042 12.6492 2.51196L22.0417 18.7366C22.176 18.9686 22.1766 19.2544 22.0427 19.4866C21.9089 19.7187 21.6613 19.8614 21.3933 19.8616H2.60718C2.33912 19.8616 2.0917 19.7188 1.95776 19.4866C1.82393 19.2544 1.82368 18.9685 1.95776 18.7366L11.3513 2.51196L11.406 2.42993C11.5468 2.24731 11.7655 2.13803 11.9998 2.13794ZM3.90894 18.3616H20.0916L11.9998 4.38403L3.90894 18.3616ZM11.9998 14.842C12.4714 14.842 12.8542 15.2249 12.8542 15.6965C12.8542 16.1681 12.4713 16.55 11.9998 16.55C11.5283 16.5499 11.1463 16.168 11.1462 15.6965C11.1462 15.225 11.5283 14.8422 11.9998 14.842ZM11.9998 8.96899C12.4139 8.96899 12.7497 9.30484 12.7498 9.71899V13.135C12.7495 13.549 12.4138 13.885 11.9998 13.885C11.5858 13.8849 11.25 13.5489 11.2498 13.135V9.71899C11.2498 9.30493 11.5857 8.96915 11.9998 8.96899Z" fill="black"/>
</svg>
