<svg width="24" height="24" viewBox="0 0 24 24" fill="none" xmlns="http://www.w3.org/2000/svg">
<path d="M13.2725 3.81818C13.373 3.41652 13.7799 3.17201 14.1816 3.27228C14.5834 3.37271 14.8277 3.77974 14.7275 4.18146L10.7275 20.1815C10.6271 20.5832 10.2201 20.8277 9.81836 20.7274C9.41662 20.6269 9.17215 20.2199 9.27246 19.8182L13.2725 3.81818ZM5.46973 7.46954C5.76259 7.17679 6.23741 7.17679 6.53027 7.46954C6.82313 7.7624 6.82307 8.23719 6.53027 8.53009L3.06055 11.9998L6.53027 15.4695C6.82313 15.7624 6.82307 16.2372 6.53027 16.5301C6.23738 16.823 5.76262 16.823 5.46973 16.5301L1.46973 12.5301C1.17693 12.2372 1.17687 11.7624 1.46973 11.4695L5.46973 7.46954ZM17.4697 7.46954C17.7626 7.17679 18.2374 7.17679 18.5303 7.46954L22.5303 11.4695C22.8231 11.7624 22.8231 12.2372 22.5303 12.5301L18.5303 16.5301C18.2374 16.823 17.7626 16.823 17.4697 16.5301C17.1769 16.2372 17.1769 15.7624 17.4697 15.4695L20.9395 11.9998L17.4697 8.53009C17.1769 8.23719 17.1769 7.7624 17.4697 7.46954Z" fill="black"/>
</svg>
