<svg width="24" height="24" viewBox="0 0 24 24" fill="none" xmlns="http://www.w3.org/2000/svg">
<path d="M21 2.25C21.4142 2.25 21.75 2.58579 21.75 3V21C21.75 21.4142 21.4142 21.75 21 21.75H3.00002C2.5858 21.75 2.25002 21.4142 2.25002 21V3C2.25002 2.58579 2.5858 2.25 3.00002 2.25H21ZM3.75002 20.25H8.25002V12.75H3.75002V20.25ZM15.75 20.25H20.25V12.75H15.75V20.25ZM9.75002 20.25H14.25V12.75H9.75002V20.25ZM3.75002 11.25H8.25002V3.75H3.75002V11.25ZM15.75 11.25H20.25V3.75H15.75V11.25ZM9.75002 11.25H14.25V3.75H9.75002V11.25Z" fill="black"/>
</svg>
