<svg width="24" height="24" viewBox="0 0 24 24" fill="none" xmlns="http://www.w3.org/2000/svg">
<path d="M7.04688 4.24994C7.46104 4.25 7.79687 4.58577 7.79688 4.99994C7.79687 5.41412 7.46104 5.74988 7.04688 5.74994H3.75V22.2499H16.25V19.0663C16.2501 18.6522 16.5858 18.3163 17 18.3163C17.4142 18.3163 17.7499 18.6522 17.75 19.0663V22.9999C17.75 23.4142 17.4142 23.7499 17 23.7499H3C2.58579 23.7499 2.25 23.4142 2.25 22.9999V4.99994C2.25001 4.58573 2.58579 4.24994 3 4.24994H7.04688Z" fill="black"/>
<path d="M17 0.249939C17.1989 0.249939 17.3896 0.329023 17.5303 0.469666L21.5303 4.46967C21.6709 4.61031 21.75 4.80104 21.75 4.99994V18.9999C21.75 19.4142 21.4142 19.7499 21 19.7499H7C6.58579 19.7499 6.25 19.4142 6.25 18.9999V0.999939C6.25002 0.58574 6.5858 0.249939 7 0.249939H17ZM7.75 18.2499H20.25V6.74994H16C15.5858 6.74994 15.25 6.41415 15.25 5.99994V1.74994H7.75V18.2499ZM16.75 5.24994H20.1895L16.75 1.81049V5.24994Z" fill="black"/>
</svg>
