<svg width="24" height="24" viewBox="0 0 24 24" fill="none" xmlns="http://www.w3.org/2000/svg">
<path d="M10.5693 1.3541C10.8723 1.30952 11.1718 1.4539 11.3262 1.71835C11.4805 1.98285 11.4584 2.31441 11.2705 2.55624C10.3171 3.78357 9.75009 5.32441 9.75 6.9996C9.75 11.0037 12.9959 14.2496 17 14.2496C18.1021 14.2496 19.1447 14.0044 20.0781 13.566C20.3553 13.4358 20.6841 13.4873 20.9082 13.6959C21.1323 13.9048 21.2071 14.2294 21.0967 14.5152C19.6867 18.1616 16.1466 20.7496 12 20.7496C6.61522 20.7496 2.25 16.3844 2.25 10.9996C2.25019 6.10067 5.86269 2.04664 10.5693 1.3541ZM9.07812 3.28281C5.96431 4.46238 3.75016 7.47263 3.75 10.9996C3.75 15.556 7.44365 19.2496 12 19.2496C14.8759 19.2496 17.4079 17.7773 18.8848 15.5445C18.2773 15.678 17.6468 15.7496 17 15.7496C12.1675 15.7496 8.25 11.8321 8.25 6.9996C8.25006 5.67102 8.54776 4.41129 9.07812 3.28281Z" fill="black"/>
</svg>
