<svg width="24" height="24" viewBox="0 0 24 24" fill="none" xmlns="http://www.w3.org/2000/svg">
<path d="M16.1503 3.79418C17.1992 2.84077 18.8006 2.84071 19.8495 3.79418C19.9012 3.84122 19.9568 3.89655 20.0302 3.96996C20.1036 4.04342 20.1599 4.09885 20.2069 4.15063C21.1599 5.19951 21.1592 6.80112 20.2059 7.84984C20.1589 7.90159 20.1036 7.95709 20.0302 8.03051L10.0975 17.9641C9.34714 18.7145 8.877 19.1921 8.29482 19.5217C7.7127 19.8512 7.06143 20.0076 6.03212 20.2649L4.18153 20.7278C3.92607 20.7916 3.65585 20.7167 3.46962 20.5305C3.2834 20.3443 3.20858 20.0741 3.27235 19.8186L3.73525 17.968C3.99259 16.9386 4.14887 16.2874 4.47841 15.7053C4.80806 15.1231 5.28557 14.653 6.03603 13.9026L15.9696 3.96996C16.043 3.89655 16.0985 3.84122 16.1503 3.79418ZM7.09755 14.9641C6.29114 15.7705 5.99021 16.0797 5.78407 16.4436C5.57793 16.8077 5.46704 17.2254 5.19032 18.3323L5.03017 18.969L5.66786 18.8098C6.77463 18.5331 7.19246 18.4222 7.55653 18.2161C7.92038 18.0099 8.22968 17.7089 9.03603 16.9026L16.8925 9.04613C16.0067 8.70035 15.2986 7.99256 14.953 7.10668L7.09755 14.9641ZM18.8407 4.90356C18.364 4.47031 17.6358 4.47027 17.1591 4.90356C17.1404 4.92055 17.1159 4.9448 17.0302 5.03051L16.2225 5.83715C16.1981 6.91336 17.0859 7.8006 18.162 7.7766L18.9696 6.96996C19.0553 6.88426 19.0796 6.85975 19.0966 6.84106C19.5298 6.36435 19.5298 5.63616 19.0966 5.15941C19.0796 5.14072 19.0553 5.11616 18.9696 5.03051C18.8841 4.94499 18.8594 4.92054 18.8407 4.90356Z" fill="#333333"/>
</svg>
