<svg width="24" height="24" viewBox="0 0 24 24" fill="none" xmlns="http://www.w3.org/2000/svg">
<path d="M11.5264 1.41803C11.8209 1.17772 12.2557 1.19518 12.5303 1.46979L22.5303 11.4698C22.8232 11.7627 22.8232 12.2374 22.5303 12.5303C22.2374 12.8232 21.7626 12.8232 21.4697 12.5303L19.75 10.8106V21.0001C19.75 21.4143 19.4142 21.7501 19 21.7501H5C4.58579 21.7501 4.25 21.4143 4.25 21.0001V10.8106L2.53027 12.5303C2.23738 12.8232 1.76262 12.8232 1.46973 12.5303C1.17683 12.2374 1.17683 11.7627 1.46973 11.4698L11.4697 1.46979L11.5264 1.41803ZM5.75 9.31061V20.2501H18.25V9.31061L12 3.06061L5.75 9.31061Z" fill="black"/>
</svg>
