<svg width="24" height="24" viewBox="0 0 24 24" fill="none" xmlns="http://www.w3.org/2000/svg">
<path d="M12 2.25C12.4142 2.25 12.75 2.58579 12.75 3C12.75 3.41421 12.4142 3.75 12 3.75H3.75V17.1895L8.96973 11.9697L9.02637 11.918C9.32095 11.6777 9.75567 11.6951 10.0303 11.9697L14 15.9395L16.4697 13.4697L16.5264 13.418C16.8209 13.1777 17.2557 13.1951 17.5303 13.4697L20.25 16.1895V12C20.25 11.5858 20.5858 11.25 21 11.25C21.4142 11.25 21.75 11.5858 21.75 12V21C21.75 21.4142 21.4142 21.75 21 21.75H3C2.58579 21.75 2.25 21.4142 2.25 21V3C2.25 2.58579 2.58579 2.25 3 2.25H12ZM4.03027 19.0303C3.94867 19.1119 3.85197 19.168 3.75 19.2041V20.25H16.1895L9.5 13.5605L4.03027 19.0303ZM15.0605 17L18.0303 19.9697C18.112 20.0514 18.169 20.1479 18.2051 20.25H20.25V18.2041C20.148 18.168 20.0513 18.1119 19.9697 18.0303L17 15.0605L15.0605 17ZM17 2.25C17.4142 2.25 17.75 2.58579 17.75 3V7.18945L18.9697 5.96973C19.2626 5.67683 19.7374 5.67683 20.0303 5.96973C20.3232 6.26262 20.3232 6.73738 20.0303 7.03027L17.5303 9.53027C17.2374 9.82317 16.7626 9.82317 16.4697 9.53027L13.9697 7.03027C13.6768 6.73738 13.6768 6.26262 13.9697 5.96973C14.2626 5.67683 14.7374 5.67683 15.0303 5.96973L16.25 7.18945V3C16.25 2.58579 16.5858 2.25 17 2.25Z" fill="black"/>
</svg>
