<svg width="24" height="24" viewBox="0 0 24 24" fill="none" xmlns="http://www.w3.org/2000/svg">
<path d="M12.0001 4.3363C15.7395 4.33648 18.7706 7.36829 18.7706 11.1078C18.7705 12.9123 18.0636 14.5529 16.9131 15.766C15.9966 16.7323 15.3303 17.725 15.3301 18.7719V19.7094C15.33 21.5485 13.8392 23.0393 12.0001 23.0394C10.1608 23.0394 8.66912 21.5486 8.66901 19.7094V18.7719C8.6688 17.725 8.00252 16.7323 7.086 15.766C5.93565 14.553 5.22866 12.9121 5.22858 11.1078C5.22858 7.36821 8.26049 4.33634 12.0001 4.3363ZM10.169 19.7094C10.1691 20.7202 10.9892 21.5394 12.0001 21.5394C13.0108 21.5393 13.83 20.7201 13.8301 19.7094V19.2084C13.3277 19.409 12.6782 19.5989 12.0001 19.599C11.3215 19.5989 10.6718 19.4082 10.169 19.2074V19.7094ZM12.0001 5.8363C9.08891 5.83634 6.72858 8.19663 6.72858 11.1078C6.72866 12.5131 7.27812 13.7882 8.17487 14.7338C8.85745 15.4534 9.58354 16.3601 9.94147 17.4301C9.96251 17.4426 9.9862 17.4569 10.0128 17.472C10.1367 17.5428 10.3161 17.6385 10.5303 17.7338C10.9721 17.9301 11.5064 18.0989 12.0001 18.099C12.4936 18.0989 13.0272 17.93 13.4688 17.7338C13.6831 17.6385 13.8625 17.5429 13.9864 17.472C14.0127 17.457 14.0358 17.4415 14.0567 17.4291C14.415 16.3594 15.1428 15.4533 15.8253 14.7338C16.7218 13.7883 17.2705 12.513 17.2706 11.1078C17.2706 8.19671 14.9111 5.83648 12.0001 5.8363ZM5.05377 15.3256C5.34648 15.0329 5.82139 15.0332 6.11432 15.3256C6.40721 15.6184 6.40719 16.0932 6.11432 16.3861L4.82428 17.6761C4.53139 17.969 4.05663 17.969 3.76373 17.6761C3.4714 17.3832 3.47103 16.9083 3.76373 16.6156L5.05377 15.3256ZM17.8848 15.2728C18.1777 14.98 18.6525 14.98 18.9454 15.2728L20.2354 16.5629C20.5282 16.8557 20.5282 17.3305 20.2354 17.6234C19.9425 17.9159 19.4676 17.9161 19.1749 17.6234L17.8848 16.3334C17.5921 16.0406 17.5923 15.5657 17.8848 15.2728ZM4.03229 10.2318C4.44629 10.2318 4.78195 10.5669 4.78229 10.9808C4.78229 11.395 4.4465 11.7308 4.03229 11.7308H2.20807C1.79392 11.7308 1.45807 11.395 1.45807 10.9808C1.4584 10.567 1.79413 10.2319 2.20807 10.2318H4.03229ZM21.7921 10.2318C22.2059 10.232 22.5407 10.567 22.5411 10.9808C22.5411 11.3949 22.2061 11.7306 21.7921 11.7308H19.9669C19.5528 11.7306 19.2169 11.3949 19.2169 10.9808C19.2172 10.567 19.553 10.232 19.9669 10.2318H21.7921ZM4.15631 3.8656C4.44921 3.57281 4.924 3.57274 5.21686 3.8656L6.5069 5.15564C6.79974 5.4485 6.79968 5.92329 6.5069 6.21619C6.214 6.50895 5.7392 6.50902 5.44635 6.21619L4.15631 4.92615C3.86346 4.6333 3.86354 4.1585 4.15631 3.8656ZM18.7833 3.8656C19.0761 3.57287 19.551 3.57285 19.8438 3.8656C20.1364 4.15847 20.1365 4.63333 19.8438 4.92615L18.5538 6.21619C18.261 6.50899 17.7861 6.50882 17.4932 6.21619C17.2004 5.92329 17.2004 5.4485 17.4932 5.15564L18.7833 3.8656ZM12.0001 0.764038C12.4141 0.764165 12.75 1.09997 12.7501 1.51404V3.33826C12.7501 3.75239 12.4142 4.08813 12.0001 4.08826C11.5858 4.08826 11.2501 3.75247 11.2501 3.33826V1.51404C11.2501 1.09989 11.5859 0.764038 12.0001 0.764038Z" fill="black"/>
</svg>
