<svg width="24" height="24" viewBox="0 0 24 24" fill="none" xmlns="http://www.w3.org/2000/svg">
<path d="M20.6862 10.1694C21.1449 8.80955 20.9861 7.32103 20.2506 6.08461C19.1447 4.18914 16.9219 3.21412 14.751 3.67227C13.5277 2.33242 11.6715 1.73662 9.88117 2.10913C8.09087 2.48165 6.6382 3.76594 6.07 5.47857C4.64404 5.7665 3.41329 6.6456 2.69271 7.89091C1.57473 9.7833 1.82848 12.1704 3.32021 13.7939C2.85985 15.1531 3.01717 16.6418 3.75186 17.8787C4.85918 19.7748 7.08344 20.7497 9.25544 20.291C10.2215 21.3622 11.6095 21.9716 13.0644 21.9636C15.2895 21.9656 17.2608 20.5512 17.9405 18.465C19.3662 18.1766 20.5968 17.2977 21.3177 16.0527C22.4222 14.1637 22.1674 11.7894 20.6862 10.1694ZM13.0644 20.657C12.1762 20.6584 11.3159 20.3519 10.6343 19.7912L10.7542 19.7243L14.791 17.4301C14.9954 17.312 15.1214 17.0967 15.1227 16.8634V11.2595L16.8293 12.2315C16.8464 12.2401 16.8583 12.2562 16.8613 12.2748V16.9185C16.8569 18.9814 15.1595 20.6527 13.0644 20.657ZM4.90294 17.2254C4.45754 16.4682 4.29762 15.5805 4.4513 14.7186L4.5712 14.7895L8.61195 17.0838C8.81554 17.2014 9.06783 17.2014 9.27142 17.0838L14.2075 14.2818V16.2219C14.2065 16.2423 14.1962 16.2611 14.1795 16.2731L10.0908 18.5949C8.27387 19.6255 5.95254 19.0127 4.90294 17.2254ZM3.83979 8.56778C4.28828 7.80564 4.99619 7.22433 5.83818 6.92676V11.6491C5.83509 11.8815 5.96067 12.0971 6.16592 12.2119L11.078 15.002L9.37134 15.974C9.3526 15.9838 9.33014 15.9838 9.31139 15.974L5.23067 13.6561C3.41734 12.6212 2.79545 10.3374 3.83979 8.5481V8.56778ZM17.8605 11.775L12.9325 8.95737L14.6351 7.98929C14.6539 7.9795 14.6763 7.9795 14.6951 7.98929L18.7758 10.3111C20.0494 11.0347 20.7842 12.4174 20.6618 13.8602C20.5395 15.303 19.5821 16.5466 18.2042 17.0523V12.3299C18.1971 12.0982 18.0665 11.8874 17.8605 11.775ZM19.5591 9.26039L19.4392 9.18956L15.4065 6.8756C15.2017 6.75726 14.9478 6.75726 14.743 6.8756L9.81099 9.67753V7.73743C9.80885 7.71734 9.81805 7.69771 9.83497 7.68627L13.9157 5.36838C15.1924 4.64418 16.7792 4.71176 17.9877 5.54181C19.1962 6.37185 19.8085 7.8148 19.5591 9.24465V9.26039ZM8.87974 12.6998L7.17311 11.7318C7.15586 11.7215 7.14415 11.7042 7.14114 11.6845V7.05269C7.14308 5.60219 7.9961 4.28343 9.33024 3.66833C10.6644 3.05323 12.2394 3.25258 13.3721 4.17992L13.2522 4.24682L9.21547 6.5411C9.01109 6.65913 8.88502 6.87449 8.88373 7.10778L8.87974 12.6998ZM9.80699 10.7322L12.0052 9.4847L14.2075 10.7322V13.2272L12.0132 14.4747L9.81099 13.2272L9.80699 10.7322Z" fill="black"/>
</svg>
