<svg width="24" height="24" viewBox="0 0 24 24" fill="none" xmlns="http://www.w3.org/2000/svg">
<path d="M10 20.75C9.58579 20.75 9.25 21.0858 9.25 21.5C9.25 21.9142 9.58579 22.25 10 22.25V21.5V20.75ZM14 22.25C14.4142 22.25 14.75 21.9142 14.75 21.5C14.75 21.0858 14.4142 20.75 14 20.75V21.5V22.25ZM12.75 16.3438C12.75 15.9295 12.4142 15.5938 12 15.5938C11.5858 15.5938 11.25 15.9295 11.25 16.3438H12H12.75ZM6.21875 16.3438H5.46875C5.46875 16.758 5.80454 17.0938 6.21875 17.0938V16.3438ZM6.21875 11.3125V10.5625C5.80454 10.5625 5.46875 10.8983 5.46875 11.3125H6.21875ZM17.5312 11.3125L18.0534 10.7741C17.9135 10.6384 17.7262 10.5625 17.5312 10.5625V11.3125ZM17.5312 16.3438V17.0938C17.7262 17.0938 17.9135 17.0178 18.0534 16.8821L17.5312 16.3438ZM20.125 13.8281L20.6472 14.3665C20.7928 14.2252 20.875 14.031 20.875 13.8281C20.875 13.6252 20.7928 13.431 20.6472 13.2897L20.125 13.8281ZM17.9062 8.34375V9.09375C18.3205 9.09375 18.6562 8.75796 18.6562 8.34375H17.9062ZM17.9062 3.3125H18.6562C18.6562 2.89829 18.3205 2.5625 17.9062 2.5625V3.3125ZM6.59375 3.3125V2.5625C6.39881 2.5625 6.21153 2.6384 6.07159 2.77412L6.59375 3.3125ZM6.59375 8.34375L6.07159 8.88213C6.21153 9.01785 6.39881 9.09375 6.59375 9.09375V8.34375ZM4 5.82812L3.47784 5.28975C3.3322 5.431 3.25 5.62524 3.25 5.82812C3.25 6.03101 3.3322 6.22525 3.47784 6.3665L4 5.82812ZM12.75 2C12.75 1.58579 12.4142 1.25 12 1.25C11.5858 1.25 11.25 1.58579 11.25 2H12H12.75ZM11.25 3.28125C11.25 3.69546 11.5858 4.03125 12 4.03125C12.4142 4.03125 12.75 3.69546 12.75 3.28125H12H11.25ZM12.75 8.93726C12.75 8.52304 12.4142 8.18726 12 8.18726C11.5858 8.18726 11.25 8.52304 11.25 8.93726H12H12.75ZM11.25 11C11.25 11.4142 11.5858 11.75 12 11.75C12.4142 11.75 12.75 11.4142 12.75 11H12H11.25ZM10 21.5V22.25H12V21.5V20.75H10V21.5ZM12 21.5V22.25H14V21.5V20.75H12V21.5ZM12 21.5H12.75V16.3438H12H11.25V21.5H12ZM6.21875 16.3438H6.96875V11.3125H6.21875H5.46875V16.3438H6.21875ZM6.21875 11.3125V12.0625H17.5312V11.3125V10.5625H6.21875V11.3125ZM17.5312 16.3438V15.5938H6.21875V16.3438V17.0938H17.5312V16.3438ZM17.5312 11.3125L17.0091 11.8509L19.6028 14.3665L20.125 13.8281L20.6472 13.2897L18.0534 10.7741L17.5312 11.3125ZM20.125 13.8281L19.6028 13.2897L17.0091 15.8054L17.5312 16.3438L18.0534 16.8821L20.6472 14.3665L20.125 13.8281ZM17.9062 8.34375H18.6562V3.3125H17.9062H17.1562V8.34375H17.9062ZM17.9062 3.3125V2.5625H6.59375V3.3125V4.0625H17.9062V3.3125ZM6.59375 8.34375V9.09375H17.9062V8.34375V7.59375H6.59375V8.34375ZM6.59375 3.3125L6.07159 2.77412L3.47784 5.28975L4 5.82812L4.52216 6.3665L7.11591 3.85088L6.59375 3.3125ZM4 5.82812L3.47784 6.3665L6.07159 8.88213L6.59375 8.34375L7.11591 7.80537L4.52216 5.28975L4 5.82812ZM12 2H11.25V3.28125H12H12.75V2H12ZM12 8.93726H11.25V11H12H12.75V8.93726H12Z" fill="black"/>
</svg>
