<svg width="24" height="24" viewBox="0 0 24 24" fill="none" xmlns="http://www.w3.org/2000/svg">
<path d="M20 12.2499C20.4142 12.2499 20.75 12.5857 20.75 12.9999V18.9999C20.75 19.4142 20.4142 19.7499 20 19.7499H5.81055L7.53027 21.4697C7.82317 21.7626 7.82317 22.2373 7.53027 22.5302C7.23738 22.8231 6.76262 22.8231 6.46973 22.5302L3.46973 19.5302C3.17683 19.2373 3.17683 18.7626 3.46973 18.4697L6.46973 15.4697C6.76262 15.1768 7.23738 15.1768 7.53027 15.4697C7.82317 15.7626 7.82317 16.2373 7.53027 16.5302L5.81055 18.2499H19.25V12.9999C19.25 12.5857 19.5858 12.2499 20 12.2499ZM16.4697 1.46967C16.7626 1.17678 17.2374 1.17678 17.5303 1.46967L20.5303 4.46967C20.8232 4.76256 20.8232 5.23732 20.5303 5.53022L17.5303 8.53022C17.2374 8.82311 16.7626 8.82311 16.4697 8.53022C16.1768 8.23732 16.1768 7.76256 16.4697 7.46967L18.1895 5.74994H4.75V10.9999C4.75 11.4142 4.41421 11.7499 4 11.7499C3.58579 11.7499 3.25 11.4142 3.25 10.9999V4.99994C3.25 4.58573 3.58579 4.24994 4 4.24994H18.1895L16.4697 2.53022C16.1768 2.23732 16.1768 1.76256 16.4697 1.46967Z" fill="#333333"/>
</svg>
