<svg width="24" height="24" viewBox="0 0 24 24" fill="none" xmlns="http://www.w3.org/2000/svg">
<path d="M2.99994 15.25C3.41415 15.25 3.74994 15.5858 3.74994 16V20.25H7.99994C8.41415 20.25 8.74994 20.5858 8.74994 21C8.74994 21.4142 8.41415 21.75 7.99994 21.75H2.99994C2.58573 21.75 2.24994 21.4142 2.24994 21V16C2.24994 15.5858 2.58573 15.25 2.99994 15.25ZM20.9999 15.25C21.4142 15.25 21.7499 15.5858 21.7499 16V21C21.7499 21.4142 21.4142 21.75 20.9999 21.75H15.9999C15.5857 21.75 15.2499 21.4142 15.2499 21C15.2499 20.5858 15.5857 20.25 15.9999 20.25H20.2499V16C20.2499 15.5858 20.5857 15.25 20.9999 15.25ZM21.9999 11.25C22.4141 11.25 22.7499 11.5858 22.7499 12C22.7499 12.4142 22.4142 12.75 21.9999 12.75H1.99994C1.58573 12.75 1.24994 12.4142 1.24994 12C1.24995 11.5858 1.58573 11.25 1.99994 11.25H21.9999ZM7.99994 2.25C8.41415 2.25 8.74994 2.58579 8.74994 3C8.74994 3.41421 8.41415 3.75 7.99994 3.75H3.74994V8C3.74994 8.41421 3.41415 8.75 2.99994 8.75C2.58573 8.75 2.24994 8.41421 2.24994 8V3C2.24994 2.58579 2.58573 2.25 2.99994 2.25H7.99994ZM20.9999 2.25C21.4142 2.25 21.7499 2.58579 21.7499 3V8C21.7499 8.41421 21.4142 8.75 20.9999 8.75C20.5857 8.75 20.2499 8.41421 20.2499 8V3.75H15.9999C15.5857 3.75 15.2499 3.41421 15.2499 3C15.2499 2.58579 15.5857 2.25 15.9999 2.25H20.9999Z" fill="black"/>
</svg>
