<svg width="24" height="24" viewBox="0 0 24 24" fill="none" xmlns="http://www.w3.org/2000/svg">
<path d="M13.9998 1.25C14.4141 1.25 14.7498 1.58579 14.7498 2V4.75586C15.5348 5.05402 16.2571 5.47588 16.8954 5.99707L19.285 4.61816L19.3534 4.58301C19.7001 4.42721 20.1152 4.55637 20.3094 4.89258L22.3094 8.35742C22.4089 8.52971 22.4361 8.73462 22.3846 8.92676C22.3331 9.11879 22.2072 9.28241 22.035 9.38184L19.6463 10.7598C19.712 11.1631 19.7498 11.577 19.7498 12C19.7498 12.4226 19.7119 12.8358 19.6463 13.2383L22.035 14.6182C22.3936 14.8253 22.5164 15.2839 22.3094 15.6426L20.3094 19.1074C20.21 19.2796 20.0464 19.4055 19.8543 19.457C19.6622 19.5085 19.4572 19.4813 19.285 19.3818L16.8954 18.002C16.2571 18.5232 15.5347 18.9441 14.7498 19.2422V22C14.7498 22.4142 14.4141 22.75 13.9998 22.75H9.99985C9.58569 22.7499 9.24985 22.4142 9.24985 22V19.2422C8.46464 18.944 7.74109 18.5236 7.10239 18.002L4.71469 19.3818C4.54246 19.4813 4.33745 19.5085 4.14536 19.457C3.95336 19.4055 3.78969 19.2796 3.69028 19.1074L1.69028 15.6426C1.48334 15.284 1.60629 14.8254 1.96469 14.6182L4.35239 13.2373C4.28712 12.8347 4.24985 12.4218 4.24985 12C4.24985 11.5775 4.28597 11.1634 4.35141 10.7598L1.96469 9.38184C1.60612 9.17472 1.48329 8.71609 1.69028 8.35742L3.69028 4.89258L3.77621 4.77246C3.87319 4.6621 4.00138 4.58161 4.14536 4.54297C4.33747 4.49149 4.54244 4.51874 4.71469 4.61816L7.10239 5.99707C7.74113 5.47544 8.46452 5.05406 9.24985 4.75586V2C9.24985 1.58583 9.58569 1.25007 9.99985 1.25H13.9998ZM10.7498 5.29102C10.7498 5.62282 10.5317 5.9151 10.2137 6.00977C9.26445 6.29237 8.40921 6.79475 7.70688 7.45898C7.46588 7.68687 7.1035 7.72933 6.81625 7.56348L4.61411 6.29199L3.36313 8.45703L5.56528 9.72852C5.85221 9.8942 5.99616 10.2284 5.91977 10.5508C5.80925 11.0165 5.74985 11.5016 5.74985 12C5.74985 12.4974 5.80941 12.9816 5.91977 13.4473C5.99614 13.7696 5.85206 14.1038 5.56528 14.2695L3.36313 15.541L4.61411 17.707L6.81625 16.4355L6.92661 16.3828C7.19174 16.2828 7.49591 16.3405 7.70688 16.54C8.40916 17.2044 9.26424 17.7065 10.2137 17.9893C10.5317 18.0839 10.7498 18.3762 10.7498 18.708V21.25H13.2498V18.708C13.2498 18.3763 13.468 18.084 13.786 17.9893C14.7349 17.7067 15.5894 17.2043 16.2918 16.54C16.5328 16.3121 16.8952 16.2697 17.1825 16.4355L19.3846 17.707L20.6356 15.541L18.4334 14.2695C18.1467 14.1038 18.0026 13.7696 18.0789 13.4473C18.1896 12.9807 18.2498 12.4966 18.2498 12C18.2498 11.5024 18.1897 11.0174 18.0789 10.5508C18.0026 10.2284 18.1466 9.89421 18.4334 9.72852L20.6346 8.45703L19.3846 6.29102L17.1825 7.56348C16.8952 7.7292 16.5328 7.68682 16.2918 7.45898C15.5893 6.79478 14.7347 6.29219 13.786 6.00977C13.468 5.91507 13.2498 5.62278 13.2498 5.29102V2.75H10.7498V5.29102ZM11.9998 8.25C14.0709 8.25 15.7498 9.92893 15.7498 12C15.7498 14.0711 14.0709 15.75 11.9998 15.75C9.92885 15.7499 8.24985 14.071 8.24985 12C8.24985 9.92898 9.92885 8.25008 11.9998 8.25ZM11.9998 9.75C10.7573 9.75008 9.74985 10.7574 9.74985 12C9.74985 13.2426 10.7573 14.2499 11.9998 14.25C13.2425 14.25 14.2498 13.2426 14.2498 12C14.2498 10.7574 13.2425 9.75 11.9998 9.75Z" fill="black"/>
</svg>
