<svg width="24" height="24" viewBox="0 0 24 24" fill="none" xmlns="http://www.w3.org/2000/svg">
<path d="M11.7363 1.29785C11.9061 1.23418 12.0939 1.23418 12.2637 1.29785L20.2637 4.29785C20.5562 4.40771 20.75 4.68748 20.75 5V17C20.75 17.2586 20.6167 17.4987 20.3975 17.6357L12.3975 22.6357C12.1543 22.7877 11.8457 22.7877 11.6025 22.6357L3.60254 17.6357C3.38331 17.4987 3.25001 17.2586 3.25 17V5L3.25879 4.88477C3.29982 4.62027 3.48029 4.394 3.73633 4.29785L11.7363 1.29785ZM4.75 5.51953V16.584L12 21.1152L19.25 16.584V5.51953L12 2.80078L4.75 5.51953ZM14.9697 8.96973C15.2626 8.67685 15.7374 8.67684 16.0303 8.96973C16.3232 9.26261 16.3232 9.73738 16.0303 10.0303L11.5303 14.5303C11.2374 14.8232 10.7626 14.8232 10.4697 14.5303L8.46973 12.5303C8.17684 12.2374 8.17684 11.7626 8.46973 11.4697C8.76262 11.1769 9.23739 11.1768 9.53027 11.4697L11 12.9395L14.9697 8.96973Z" fill="black"/>
</svg>
