<svg width="24" height="24" viewBox="0 0 24 24" fill="none" xmlns="http://www.w3.org/2000/svg">
<path d="M20.9707 1C21.3849 1 21.7207 1.33579 21.7207 1.75L21.7207 22.249C21.7207 22.6632 21.3849 22.999 20.9707 22.999L5.02734 22.999C4.61328 22.9988 4.27734 22.6631 4.27734 22.249V17.3047H2.75C2.33579 17.3047 2 16.9689 2 16.5547C2.00012 16.1406 2.33586 15.8047 2.75 15.8047H4.27734V12.75H2.75C2.33594 12.75 2.00025 12.414 2 12C2 11.5858 2.33579 11.25 2.75 11.25H4.27734L4.27734 8.19434H2.75C2.33584 8.19434 2.00008 7.85848 2 7.44434C2 7.03012 2.33579 6.69434 2.75 6.69434H4.27734V1.75C4.27734 1.3359 4.61328 1.00018 5.02734 1L20.9707 1ZM5.77734 6.69434L7.30566 6.69434C7.71974 6.6945 8.05566 7.03023 8.05566 7.44434C8.05558 7.85838 7.71969 8.19417 7.30566 8.19434H5.77734L5.77734 11.25H7.30566C7.71974 11.2502 8.05566 11.5859 8.05566 12C8.05541 12.4139 7.71958 12.7498 7.30566 12.75H5.77734V15.8047H7.30566C7.71966 15.8049 8.05555 16.1407 8.05566 16.5547C8.05566 16.9688 7.71974 17.3045 7.30566 17.3047H5.77734V21.499L20.2207 21.499L20.2207 2.5L5.77734 2.5V6.69434ZM13.748 14.9697C14.0409 14.6769 14.5157 14.6769 14.8086 14.9697C15.1013 15.2626 15.1013 15.7374 14.8086 16.0303L14.1992 16.6387L14.8086 17.248C15.1013 17.541 15.1014 18.0158 14.8086 18.3086C14.5158 18.6014 14.041 18.6013 13.748 18.3086L13.1387 17.6992L12.5303 18.3086C12.2374 18.6012 11.7626 18.6013 11.4697 18.3086C11.1769 18.0158 11.177 17.541 11.4697 17.248L12.0781 16.6387L11.4697 16.0303C11.1768 15.7374 11.1768 15.2626 11.4697 14.9697C11.7626 14.6768 12.2374 14.6768 12.5303 14.9697L13.1387 15.5781L13.748 14.9697ZM13.748 10.4697C14.0409 10.1769 14.5157 10.1769 14.8086 10.4697C15.1013 10.7626 15.1013 11.2374 14.8086 11.5303L14.1992 12.1387L14.8086 12.748C15.1013 13.041 15.1014 13.5158 14.8086 13.8086C14.5158 14.1014 14.041 14.1013 13.748 13.8086L13.1387 13.1992L12.5303 13.8086C12.2374 14.1012 11.7626 14.1013 11.4697 13.8086C11.1769 13.5158 11.177 13.041 11.4697 12.748L12.0781 12.1387L11.4697 11.5303C11.1768 11.2374 11.1768 10.7626 11.4697 10.4697C11.7626 10.1768 12.2374 10.1768 12.5303 10.4697L13.1387 11.0781L13.748 10.4697ZM14.376 5.08398C14.6057 4.73934 15.0714 4.64621 15.416 4.87598C15.7607 5.10574 15.8538 5.57137 15.624 5.91602L13.624 8.91602C13.4994 9.10288 13.2977 9.22386 13.0742 9.24609C12.8506 9.26823 12.6286 9.18916 12.4697 9.03027L11.4697 8.03027C11.1768 7.73738 11.1768 7.26262 11.4697 6.96973C11.7626 6.67683 12.2374 6.67683 12.5303 6.96973L12.8828 7.32227L14.376 5.08398Z" fill="black"/>
</svg>
