<svg width="24" height="24" viewBox="0 0 24 24" fill="none" xmlns="http://www.w3.org/2000/svg">
<path d="M15.1191 2.25977C15.3916 2.30353 15.6226 2.49476 15.7119 2.7627L16.541 5.25H21C21.4142 5.25 21.75 5.58579 21.75 6C21.75 6.41421 21.4142 6.75 21 6.75H19.7012L18.748 21.0498C18.7218 21.4438 18.3948 21.75 18 21.75H6C5.60515 21.75 5.27822 21.4438 5.25195 21.0498L4.29883 6.75H3C2.58579 6.75 2.25 6.41421 2.25 6C2.25 5.58579 2.58579 5.25 3 5.25H7.45898L8.28809 2.7627L8.33496 2.65332C8.46255 2.40837 8.71737 2.25 9 2.25H15L15.1191 2.25977ZM6.70117 20.25H17.2988L18.1982 6.75H5.80176L6.70117 20.25ZM10 9.25C10.4142 9.25 10.75 9.58579 10.75 10V17C10.75 17.4142 10.4142 17.75 10 17.75C9.58579 17.75 9.25 17.4142 9.25 17V10C9.25 9.58579 9.58579 9.25 10 9.25ZM14 9.25C14.4142 9.25 14.75 9.58579 14.75 10V14C14.75 14.4142 14.4142 14.75 14 14.75C13.5858 14.75 13.25 14.4142 13.25 14V10C13.25 9.58579 13.5858 9.25 14 9.25ZM9.04102 5.25H14.959L14.459 3.75H9.54102L9.04102 5.25Z" fill="black"/>
</svg>
