<svg width="24" height="24" viewBox="0 0 24 24" fill="none" xmlns="http://www.w3.org/2000/svg">
<path d="M12 2.25012C12.4142 2.25012 12.75 2.5859 12.75 3.00012C12.75 3.41433 12.4142 3.75012 12 3.75012H3.75V17.1896L8.96973 11.9698L9.02637 11.9181C9.32095 11.6778 9.75567 11.6952 10.0303 11.9698L14 15.9396L16.4697 13.4698L16.5264 13.4181C16.8209 13.1778 17.2557 13.1952 17.5303 13.4698L20.25 16.1896V12.0001C20.25 11.5859 20.5858 11.2501 21 11.2501C21.4142 11.2501 21.75 11.5859 21.75 12.0001V21.0001C21.75 21.4143 21.4142 21.7501 21 21.7501H3C2.58579 21.7501 2.25 21.4143 2.25 21.0001V3.00012C2.25 2.5859 2.58579 2.25012 3 2.25012H12ZM4.03027 19.0304C3.94867 19.112 3.85197 19.1681 3.75 19.2042V20.2501H16.1895L9.5 13.5607L4.03027 19.0304ZM15.0605 17.0001L18.0303 19.9698C18.112 20.0515 18.169 20.148 18.2051 20.2501H20.25V18.2042C20.148 18.1681 20.0513 18.112 19.9697 18.0304L17 15.0607L15.0605 17.0001ZM17.5264 2.41809C17.8209 2.17778 18.2557 2.19524 18.5303 2.46984L21.0303 4.96984C21.3232 5.26274 21.3232 5.7375 21.0303 6.03039C20.7374 6.32328 20.2626 6.32328 19.9697 6.03039L18.75 4.81066V9.00012C18.75 9.41433 18.4142 9.75012 18 9.75012C17.5858 9.75012 17.25 9.41433 17.25 9.00012V4.81066L16.0303 6.03039C15.7374 6.32328 15.2626 6.32328 14.9697 6.03039C14.6768 5.7375 14.6768 5.26274 14.9697 4.96984L17.4697 2.46984L17.5264 2.41809Z" fill="black"/>
</svg>
