<svg width="24" height="24" viewBox="0 0 24 24" fill="none" xmlns="http://www.w3.org/2000/svg">
<path d="M12 4.25C15.6923 4.25 18.373 5.57392 20.1338 7.19922C21.0095 8.00759 21.6562 8.88899 22.0869 9.71582C22.5106 10.5293 22.75 11.3384 22.75 12C22.75 12.6616 22.5106 13.4707 22.0869 14.2842C21.6562 15.111 21.0095 15.9924 20.1338 16.8008C18.373 18.4261 15.6923 19.75 12 19.75C8.30768 19.75 5.62695 18.4261 3.86621 16.8008C2.99052 15.9924 2.34376 15.111 1.91309 14.2842C1.48938 13.4707 1.25 12.6616 1.25 12C1.25 11.3384 1.48938 10.5293 1.91309 9.71582C2.34376 8.88899 2.99052 8.00759 3.86621 7.19922C5.62695 5.57392 8.30768 4.25 12 4.25ZM12 5.75C8.69247 5.75 6.37305 6.92616 4.88379 8.30078C4.13467 8.99228 3.5937 9.73614 3.24316 10.4092C2.88572 11.0955 2.75 11.6616 2.75 12C2.75 12.3384 2.88572 12.9045 3.24316 13.5908C3.5937 14.2639 4.13467 15.0077 4.88379 15.6992C6.37305 17.0738 8.69247 18.25 12 18.25C15.3075 18.25 17.6269 17.0738 19.1162 15.6992C19.8653 15.0077 20.4063 14.2639 20.7568 13.5908C21.1143 12.9045 21.25 12.3384 21.25 12C21.25 11.6616 21.1143 11.0955 20.7568 10.4092C20.4063 9.73614 19.8653 8.99228 19.1162 8.30078C17.6269 6.92616 15.3075 5.75 12 5.75ZM12 8.25C14.071 8.25005 15.75 9.92898 15.75 12C15.75 14.071 14.071 15.7499 12 15.75C9.92893 15.75 8.25 14.0711 8.25 12C8.25001 9.92894 9.92894 8.25 12 8.25ZM12 9.75C10.7574 9.75 9.75001 10.7574 9.75 12C9.75 13.2426 10.7574 14.25 12 14.25C13.2426 14.2499 14.25 13.2426 14.25 12C14.25 10.7574 13.2426 9.75005 12 9.75Z" fill="black"/>
</svg>
