<svg width="24" height="24" viewBox="0 0 24 24" fill="none" xmlns="http://www.w3.org/2000/svg">
<path d="M12 2.25C17.3848 2.25 21.75 6.61522 21.75 12C21.75 17.3848 17.3848 21.75 12 21.75H3C2.7234 21.75 2.46938 21.5974 2.33887 21.3535C2.20849 21.1097 2.2226 20.8141 2.37598 20.584C2.7716 19.9905 3.04984 19.5718 3.24707 19.2354C3.44351 18.9002 3.52804 18.6972 3.56445 18.54C3.58994 18.4301 3.59901 18.3838 3.60449 18.3447C3.60995 18.3057 3.6144 18.259 3.62012 18.1465C3.62725 18.006 3.58931 17.7324 3.43848 17.1816C3.29292 16.6501 3.06738 15.9448 2.75684 14.9736C2.46903 14.0736 2.25 13.0472 2.25 12C2.25 6.61522 6.61522 2.25 12 2.25ZM12 3.75C7.44365 3.75 3.75 7.44365 3.75 12C3.75 12.8456 3.92837 13.7123 4.18555 14.5166C4.49181 15.4744 4.72979 16.2157 4.88574 16.7852C5.03641 17.3353 5.13875 17.8175 5.11816 18.2227C5.10414 18.4986 5.08876 18.6097 5.02637 18.8789C4.93945 19.2539 4.76706 19.6102 4.54199 19.9941C4.49406 20.0759 4.44121 20.1607 4.38574 20.25H12C16.5563 20.25 20.25 16.5563 20.25 12C20.25 7.44365 16.5563 3.75 12 3.75ZM12 10.25C12.4142 10.25 12.75 10.5858 12.75 11V16C12.75 16.4142 12.4142 16.75 12 16.75C11.5858 16.75 11.25 16.4142 11.25 16V11C11.25 10.5858 11.5858 10.25 12 10.25ZM12 7C12.5523 7 13 7.44772 13 8C13 8.55228 12.5523 9 12 9C11.4477 9 11 8.55228 11 8C11 7.44772 11.4477 7 12 7Z" fill="black"/>
</svg>
