<svg width="24" height="24" viewBox="0 0 24 24" fill="none" xmlns="http://www.w3.org/2000/svg">
<path d="M14.9999 0.25C15.4141 0.25 15.7499 0.585786 15.7499 1V2.25H19.9999C20.4141 2.25 20.7499 2.58579 20.7499 3V21C20.7499 21.4142 20.4141 21.75 19.9999 21.75H3.99989C3.58568 21.75 3.24989 21.4142 3.24989 21V3C3.24989 2.58579 3.58568 2.25 3.99989 2.25H8.24989V1C8.24989 0.585803 8.5857 0.250027 8.99989 0.25H14.9999ZM4.74989 20.25H19.2499V3.75H15.7499V5C15.7499 5.41421 15.4141 5.75 14.9999 5.75H8.99989C8.5857 5.74997 8.24989 5.4142 8.24989 5V3.75H4.74989V20.25ZM13.4696 9.46973C13.7625 9.17683 14.2373 9.17683 14.5302 9.46973C14.8231 9.76262 14.8231 10.2374 14.5302 10.5303L13.0604 12L14.5302 13.4697C14.8231 13.7626 14.8231 14.2374 14.5302 14.5303C14.2373 14.8232 13.7625 14.8232 13.4696 14.5303L11.9999 13.0605L10.5302 14.5303C10.2373 14.8232 9.76251 14.8232 9.46962 14.5303C9.17673 14.2374 9.17673 13.7626 9.46962 13.4697L10.9393 12L9.46962 10.5303C9.17673 10.2374 9.17673 9.76262 9.46962 9.46973C9.76251 9.17683 10.2373 9.17683 10.5302 9.46973L11.9999 10.9395L13.4696 9.46973ZM9.74989 4.25H14.2499V1.75H9.74989V4.25Z" fill="black"/>
</svg>
