<svg width="24" height="24" viewBox="0 0 24 24" fill="none" xmlns="http://www.w3.org/2000/svg">
<path d="M14.9999 0.25C15.4141 0.25 15.7499 0.585786 15.7499 1V2.25H19.9999C20.4141 2.25 20.7499 2.58579 20.7499 3V21C20.7499 21.4142 20.4141 21.75 19.9999 21.75H3.99988C3.58566 21.75 3.24988 21.4142 3.24988 21V3C3.24988 2.58579 3.58566 2.25 3.99988 2.25H8.24988V1C8.24988 0.585803 8.58569 0.250027 8.99988 0.25H14.9999ZM4.74988 20.25H19.2499V3.75H15.7499V5C15.7499 5.41421 15.4141 5.75 14.9999 5.75H8.99988C8.58569 5.74997 8.24988 5.4142 8.24988 5V3.75H4.74988V20.25ZM11.9999 8.75C12.4141 8.75 12.7499 9.08579 12.7499 9.5V11.25H14.4999C14.9141 11.25 15.2499 11.5858 15.2499 12C15.2499 12.4142 14.9141 12.75 14.4999 12.75H12.7499V14.5C12.7499 14.9142 12.4141 15.25 11.9999 15.25C11.5857 15.25 11.2499 14.9142 11.2499 14.5V12.75H9.49988C9.08566 12.75 8.74988 12.4142 8.74988 12C8.74988 11.5858 9.08566 11.25 9.49988 11.25H11.2499V9.5C11.2499 9.08579 11.5857 8.75 11.9999 8.75ZM9.74988 4.25H14.2499V1.75H9.74988V4.25Z" fill="black"/>
</svg>
