<svg width="24" height="24" viewBox="0 0 24 24" fill="none" xmlns="http://www.w3.org/2000/svg">
<path d="M14.9999 0.25C15.4141 0.25 15.7499 0.585786 15.7499 1V2.25H19.9999C20.4141 2.25 20.7499 2.58579 20.7499 3V21C20.7499 21.4142 20.4141 21.75 19.9999 21.75H3.99989C3.58568 21.75 3.24989 21.4142 3.24989 21V3C3.24989 2.58579 3.58568 2.25 3.99989 2.25H8.24989V1C8.24989 0.585803 8.5857 0.250027 8.99989 0.25H14.9999ZM4.74989 20.25H19.2499V3.75H15.7499V5C15.7499 5.41421 15.4141 5.75 14.9999 5.75H8.99989C8.5857 5.74997 8.24989 5.4142 8.24989 5V3.75H4.74989V20.25ZM14.4696 9.46973C14.7625 9.17683 15.2373 9.17683 15.5302 9.46973C15.8231 9.76262 15.8231 10.2374 15.5302 10.5303L11.5302 14.5303C11.3895 14.6709 11.1988 14.75 10.9999 14.75C10.801 14.75 10.6103 14.6709 10.4696 14.5303L8.96962 13.0303C8.67673 12.7374 8.67673 12.2626 8.96962 11.9697C9.26251 11.6768 9.73727 11.6768 10.0302 11.9697L10.9999 12.9395L14.4696 9.46973ZM9.74989 4.25H14.2499V1.75H9.74989V4.25Z" fill="black"/>
</svg>
